<svg xmlns="http://www.w3.org/2000/svg" width="900" height="476" viewBox="0 0 900 476" role="img" aria-labelledby="title desc"><title id="title">DNAD-02-F11: A lane set is a projection of a population</title><desc id="desc">Can these bands identify one molecule? No photographic data or intensity claim.</desc><defs><marker id="arrow" markerWidth="8" markerHeight="8" refX="7" refY="3" orient="auto"><path d="M0,0 L0,6 L7,3 z" fill="#176CA4"/></marker></defs><rect width="100%" height="100%" fill="white"/><g font-family="DejaVu Sans, sans-serif"><text x="240" y="30" font-size="24" font-weight="bold" text-anchor="middle" fill="#18344A">Pure witness</text><rect x="40" y="55" width="405" height="315" rx="8" fill="#F1F5F8" stroke="#ABC1CF" stroke-width="1.5"/><text x="80" y="85" font-size="20" font-weight="normal" text-anchor="middle" fill="#18344A">1</text><path d="M62,350 L98,350" fill="none" stroke="#176CA4" stroke-width="5"/><text x="143" y="85" font-size="20" font-weight="normal" text-anchor="middle" fill="#18344A">2</text><path d="M125,310 L161,310" fill="none" stroke="#176CA4" stroke-width="5"/><text x="206" y="85" font-size="20" font-weight="normal" text-anchor="middle" fill="#18344A">3</text><path d="M188,270 L224,270" fill="none" stroke="#176CA4" stroke-width="5"/><text x="269" y="85" font-size="20" font-weight="normal" text-anchor="middle" fill="#18344A">4</text><path d="M251,230 L287,230" fill="none" stroke="#176CA4" stroke-width="5"/><text x="332" y="85" font-size="20" font-weight="normal" text-anchor="middle" fill="#18344A">5</text><path d="M314,190 L350,190" fill="none" stroke="#176CA4" stroke-width="5"/><text x="395" y="85" font-size="20" font-weight="normal" text-anchor="middle" fill="#18344A">6</text><path d="M377,150 L413,150" fill="none" stroke="#176CA4" stroke-width="5"/><text x="240" y="405" font-size="18" font-weight="normal" text-anchor="middle" fill="#18344A">Lanes 1–6; 40 bp bottom, 140 bp top</text><text x="685" y="30" font-size="24" font-weight="bold" text-anchor="middle" fill="#18344A">Three-route mixture</text><rect x="485" y="55" width="405" height="315" rx="8" fill="#F1F5F8" stroke="#ABC1CF" stroke-width="1.5"/><text x="525" y="85" font-size="20" font-weight="normal" text-anchor="middle" fill="#18344A">1</text><path d="M507,350 L543,350" fill="none" stroke="#176CA4" stroke-width="5"/><text x="588" y="85" font-size="20" font-weight="normal" text-anchor="middle" fill="#18344A">2</text><path d="M570,310 L606,310" fill="none" stroke="#176CA4" stroke-width="5"/><text x="651" y="85" font-size="20" font-weight="normal" text-anchor="middle" fill="#18344A">3</text><path d="M633,350 L669,350" fill="none" stroke="#176CA4" stroke-width="5"/><path d="M633,310 L669,310" fill="none" stroke="#176CA4" stroke-width="5"/><path d="M633,270 L669,270" fill="none" stroke="#176CA4" stroke-width="5"/><text x="714" y="85" font-size="20" font-weight="normal" text-anchor="middle" fill="#18344A">4</text><path d="M696,270 L732,270" fill="none" stroke="#176CA4" stroke-width="5"/><path d="M696,230 L732,230" fill="none" stroke="#176CA4" stroke-width="5"/><text x="777" y="85" font-size="20" font-weight="normal" text-anchor="middle" fill="#18344A">5</text><path d="M759,230 L795,230" fill="none" stroke="#176CA4" stroke-width="5"/><path d="M759,190 L795,190" fill="none" stroke="#176CA4" stroke-width="5"/><text x="840" y="85" font-size="20" font-weight="normal" text-anchor="middle" fill="#18344A">6</text><path d="M822,190 L858,190" fill="none" stroke="#176CA4" stroke-width="5"/><path d="M822,150 L858,150" fill="none" stroke="#176CA4" stroke-width="5"/><text x="685" y="405" font-size="18" font-weight="normal" text-anchor="middle" fill="#18344A">Lanes 1–6; 40 bp bottom, 140 bp top</text><text x="450" y="455" font-size="19" font-weight="normal" text-anchor="middle" fill="#5B6874">Synthetic possible product lengths only. Mixture bands lose joint route identity.</text></g></svg>
