<svg xmlns="http://www.w3.org/2000/svg" width="900" height="420" viewBox="0 0 900 420" role="img" aria-labelledby="title desc"><title id="title">DNAD-01-F2: A directed graph with two valid witnesses</title><desc id="desc">Show six vertices and all nine directed edges; retain node positions across route overlays. Original teaching graph, not a reproduction of Adleman&#x27;s graph.</desc><defs><marker id="arrow" markerWidth="8" markerHeight="8" refX="7" refY="3" orient="auto"><path d="M0,0 L0,6 L7,3 z" fill="#176CA4"/></marker></defs><rect width="100%" height="100%" fill="white"/><g font-family="DejaVu Sans, sans-serif"><path d="M87.90937,183.90153 L224.63606,87.82331" fill="none" stroke="#176CA4" stroke-width="3" marker-end="url(#arrow)"/><path d="M87.90937,216.09847 L224.63606,312.17669" fill="none" stroke="#176CA4" stroke-width="3" marker-end="url(#arrow)"/><path d="M263.3333333333333,95 Q290,200 263.3333333333333,305" fill="none" stroke="#176CA4" stroke-width="2.5" marker-end="url(#arrow)"/><path d="M274.37576,83.7776 L453.01255,184.74623" fill="none" stroke="#176CA4" stroke-width="3" marker-end="url(#arrow)"/><path d="M236.66666666666666,305 Q210,200 236.66666666666666,95" fill="none" stroke="#176CA4" stroke-width="2.5" marker-end="url(#arrow)"/><path d="M274.37576,316.2224 L453.01255,215.25377" fill="none" stroke="#176CA4" stroke-width="3" marker-end="url(#arrow)"/><path d="M502.90937,183.90153 L639.63606,87.82331" fill="none" stroke="#176CA4" stroke-width="3" marker-end="url(#arrow)"/><path d="M508.0,200.0 L794.0,200.0" fill="none" stroke="#176CA4" stroke-width="3" marker-end="url(#arrow)"/><path d="M686.73119,87.65659 L800.94047,180.45163" fill="none" stroke="#176CA4" stroke-width="3" marker-end="url(#arrow)"/><circle cx="65" cy="200" r="25" fill="#FFFFFF" stroke="#176CA4" stroke-width="2.5"/><text x="65" y="208" font-size="24" font-weight="bold" text-anchor="middle" fill="#176CA4">A</text><circle cx="250" cy="70" r="25" fill="#FFFFFF" stroke="#176CA4" stroke-width="2.5"/><text x="250" y="78" font-size="24" font-weight="bold" text-anchor="middle" fill="#176CA4">B</text><circle cx="250" cy="330" r="25" fill="#FFFFFF" stroke="#176CA4" stroke-width="2.5"/><text x="250" y="338" font-size="24" font-weight="bold" text-anchor="middle" fill="#176CA4">C</text><circle cx="480" cy="200" r="25" fill="#FFFFFF" stroke="#176CA4" stroke-width="2.5"/><text x="480" y="208" font-size="24" font-weight="bold" text-anchor="middle" fill="#176CA4">D</text><circle cx="665" cy="70" r="25" fill="#FFFFFF" stroke="#176CA4" stroke-width="2.5"/><text x="665" y="78" font-size="24" font-weight="bold" text-anchor="middle" fill="#176CA4">E</text><circle cx="825" cy="200" r="25" fill="#FFFFFF" stroke="#176CA4" stroke-width="2.5"/><text x="825" y="208" font-size="24" font-weight="bold" text-anchor="middle" fill="#176CA4">F</text><text x="450" y="395" font-size="22" font-weight="normal" text-anchor="middle" fill="#18344A">Start A; finish F. Nine directed edges; arrow direction matters.</text></g></svg>
